<svg xmlns="http://www.w3.org/2000/svg" viewBox="0 0 994.8736 543.6565"><defs><style>.a{fill:#0a181d;}.b{fill:#517181;}</style></defs><title>ded-herring</title><path class="a" d="M476.996,1.4058c-5.489,1.694-19.449,11.15-32.751,22.185-12.471,10.347-43.458,41.985-57.249,58.451l-10.5,12.538-13,.694c-83.998,4.48-142.042,18.28-200.505,47.669-67.33,33.846-124.614,87.325-152.81,142.66C2.655,300.3718-.005,308.2088,0,315.5968c.007,11.266,4.37,14.559,21.529,16.251,23.155,2.283,38.316,5.789,56.936,13.168,29.827,11.82,54.686,29.923,71.073,51.758,3.513,4.68,6.239,8.658,6.058,8.8379s-3.878-1.7769-8.215-4.3519c-13.736-8.154-37.126-19.103-48.704-22.7991-19.205-6.13-35.06-7.8609-50.953-5.5629-17.255,2.495-26.866,8.991-29.859,20.181-1.661,6.208.678,13.019,7.943,23.131,7.567,10.532,17.73,19.972,30.784,28.594,44.189,29.185,118.321,52.491,200.404,63.005,37.168,4.761,50.57,5.52,97.5,5.516,46.57-.003,60.283-.791,93.146-5.352l12.607-1.75,7.044,6.878c11.29,11.0239,27.957,21.234,43.203,26.465,9.981,3.424,26.102,4.96,37.738,3.595,17.961-2.108,34.817-9.888,41.158-18.9971,7.19-10.33,3.753-21.9129-10.982-37.0179-4.621-4.737-8.292-8.681-8.158-8.765s4.294-1.628,9.244-3.432c28.657-10.441,72.652-31.214,103.5-48.869,8.525-4.879,28.55-16.9031,44.5-26.72,47.288-29.106,64.5551-37.164,77.643-36.2351,11.572.8221,17.061,4.4931,45.565,30.4781,19.896,18.137,39.888,35.107,52.292,44.387,41.533,31.073,78.19,45.466,87.705,34.4369,6.145-7.1219,4.318-17.7729-10.815-63.0479-18.235-54.557-27.967-77.738-45.2049-107.674L927.959,290.03l3.162-5.325c6.026-10.15,19.453-38.401,25.819-54.326,6.192-15.489,29.223-81.174,35.239-100.5,6.071-19.507,1.906-29-12.725-29-14.39,0-47.1059,17.807-78.573,42.767-18.281,14.501-26.714,22.1-51.885,46.753-29.878,29.264-34.422,32.48-45.8879,32.48-10.3181,0-27.2481-6.946-62.1121-25.483-29.962-15.931-79.447-40.692-94-47.036-7.425-3.236-13.679-6.01-13.899-6.165s1.012-2.927,2.736-6.161c8.475-15.902,7.494-27.877-3.156-38.526-10.837-10.837-47.439-39.483-68.181-53.361-4.95-3.312-16.2-10.407-25-15.766s-22.44-13.803-30.312-18.762C489.881-.5442,486.646-1.57,476.996,1.4058"/><path class="b" d="M470.372,29.2568c-17.521,13.089-42.168,36.711-59.444,56.972l-6.95,8.15,7.759.699c4.267.384,14.245,1.139,22.172,1.677l14.413.979,2.087-2.662c14.015-17.88,39.775-44.708,43.924-45.745,3.871-.967,8.054,2.16,8.471,6.333.27,2.698-.997,4.499-10.132,14.401-16.526,17.915-25.948,29.292-24.496,29.578.726.142,9.195,1.557,18.82,3.144l17.5,2.884,5.942-6.644c3.269-3.654,9.375-10.132,13.569-14.394,6.651-6.76,8.076-7.75,11.152-7.75,6.524,0,8.919,6.024,4.618,11.615-1.221,1.587-5.727,6.883-10.014,11.769l-7.794,8.884,20.263,5.212,20.264,5.212,6.712-6.856c8.842-9.033,12.968-10.513,17.282-6.199,2.756,2.755,1.797,6.928-2.924,12.724l-4.431,5.44,17.071,5.682c13.684,4.555,17.254,5.418,17.998,4.35,2.035-2.922,6.79-13.434,6.791-15.013.002-4.387-48.211-42.686-78.483-62.344-29.311-19.033-57.552-35.476-60.931-35.476-.733,0-5.777,3.32-11.209,7.378"/><path class="b" d="M349.996,117.0058c-70.742,5.202-122.823,18.069-173.5,42.866-18.645,9.124-41.012,22.031-54.956,31.716-38.013,26.398-75.416,67.54-92.541,101.791-3.3,6.6-6.282,13.462-6.626,15.25-.614,3.185-.554,3.25,3.005,3.25,6.2,0,22.791,2.821,34.715,5.903,46.445,12.005,85.397,37.689,110.099,72.597,6.24,8.818,11.453,19.644,12.314,25.571,1.509,10.395-3.681,17.929-12.35,17.929-4.084,0-6.876-1.2411-21.674-9.636-43.886-24.895-68.113-33.383-91.486-32.051-5.225.297-11.3,1.191-13.5,1.9849-3.7,1.336-3.992,1.7151-3.888,5.0521.135,4.338,5.88,12.265,13.783,19.016,18.629,15.915,54.024,33.025,94.105,45.491,69.585,21.641,158.302,32.616,236.137,29.211,101.875-4.457,187.788-28.588,277.863-78.0461,17.348-9.5249,20.252-11.2359,69-40.6539,28.917-17.451,46.443-26.7341,57.218-30.306,7.34-2.434,20.106-2.755,27.782-.699,12.681,3.3959,21.224,9.388,48,33.669,38.009,34.467,61.491,52.732,85.2371,66.3,8.4839,4.8481,23.334,11.9311,23.8759,11.388,1.28-1.2789-15.117-51.2489-27.278-83.1349a483.3644,483.3644,0,0,0-29.597-62.472c-6.385-11.077-7.206-13.1-7.5579-18.626-.3891-6.112-.3061-6.344,5.9109-16.593,8.4281-13.892,20.148-39.36,28.2511-61.394,7.7059-20.956,30.6579-87.233,30.6579-88.532,0-1.273-10.889,3.822-22.5,10.528-28.995,16.744-52.7469,35.795-88,70.583-35.202,34.737-42.0019,39.196-60,39.346-7.812.065-10.32-.385-19-3.409-12.197-4.249-37.316-16.526-68-33.233-54.096-29.455-92.466-46.612-137.311-61.398-49.879-16.445-90.336-24.68-142.061-28.915-19.168-1.569-66.863-1.759-86.128-.343"/><path class="a" d="M288.042,152.6788c-5.363,5.363-3.852,9.61,5.954,16.737,8.897,6.467,23.396,21.419,29.807,30.74,10.52,15.293,20.019,38.363,24.18,58.723,5.083,24.867,5.304,54.347.577,76.769-9.105,43.187-32.511,83.11-61.795,105.406-8.573,6.527-9.769,8.131-9.769,13.104,0,4.365,2.58,6.721,7.362,6.721,9.162,0,27.386-14.04,42.184-32.5,17.273-21.548,32.943-53.988,39.368-81.5,7.114-30.464,7.077-67.474-.099-98.5-4.687-20.262-14.135-43.045-24.053-58-13.54-20.418-34.348-38.098-47.314-40.202-2.797-.454-3.862-.038-6.402,2.502"/><path class="a" d="M478.743,174.6058c-2.969,3.28-2.13,6.665,3.335,13.457a58.5838,58.5838,0,0,1,6.575,9.816c6.309,14.788,2.333,33.562-8.564,40.441-6.313,3.986-7.875,8.777-4.093,12.559,4.39,4.39,14.492,1.625,21.203-5.803,8.95-9.906,12.27-19.852,11.558-34.626-.564-11.723-2.892-19.256-8.17-26.447-6.634-9.038-17.816-13.848-21.844-9.397"/><path class="a" d="M573.883,194.9918c-3.128,3.128-1.972,7.696,3.701,14.625a72.1964,72.1964,0,0,1,7.797,12.262c2.762,5.828,3.082,7.483,3.098,16,.02,11.243-1.699,16.625-7.579,23.734-7.108,8.592-7.121,16.408-.028,17.088,4.806.461,8.413-1.354,13.502-6.795,8.273-8.844,12.6-20.192,12.595-33.027-.007-17.989-8.334-35.199-20.88-43.156-5.332-3.381-9.317-3.62-12.206-.731"/><path class="a" d="M140.384,213.8208c-3.624,1.53-6.388,5.986-6.388,10.299,0,4.282.692,5.127,22.894,27.956l8.458,8.697-15.416,15.605c-8.478,8.584-15.801,16.295-16.272,17.136-2.7,4.825,3.492,13.365,9.69,13.365,4.516,0,6.44-1.531,21.753-17.306l13.608-14.018,9.972,10.412c5.485,5.727,11.703,12.354,13.818,14.727,4.966,5.572,8.781,7.542,13.056,6.739,4.353-.816,8.439-5.655,8.439-9.9931,0-4.1029-2.476-7.2729-18.453-23.6279l-12.277-12.567,15.24-15.477c10.933-11.101,15.436-16.369,15.934-18.635a11.1654,11.1654,0,0,0-6.202-11.926c-5.983-2.5-8.746-.721-24.541,15.803l-14.324,14.984-8.983-9.307c-4.94-5.12-11.888-12.345-15.438-16.057-6.67-6.973-10.233-8.638-14.568-6.809"/><path class="a" d="M898.5411,216.5178c-1.625.902-8.15,5.791-14.5,10.866s-17.9091,13.56-25.6871,18.857-14.415,10.345-14.75,11.216a8.8,8.8,0,0,0,1.465,8.787c3.7011,4.706,8.018,3.764,20.582-4.491,13.028-8.56,35.908-25.587,41.393-30.805,3.152-2.998,3.952-4.477,3.952-7.303,0-6.807-6.416-10.478-12.4549-7.127"/><path class="a" d="M667.996,231.5978c-3.353,1.211-5,3.657-5,7.425,0,3.196.828,4.75,4.974,9.327,7.365,8.133,10.26,14.467,10.811,23.656.613,10.221-1.3,15.727-8.319,23.944-6.103,7.145-7.251,9.9119-5.608,13.517,2.836,6.225,11.322,5.285,18.676-2.069,13.37-13.37,16.646-39.49,7.263-57.911-4.935-9.688-17.721-19.721-22.797-17.889"/><path class="a" d="M524.996,274.8788c-2.618,2.618-2.532,5.973.25,9.797,1.237,1.702,3.657,5.031,5.376,7.398,4.88,6.722,6.723,13.049,6.787,23.305.047,7.684-.327,9.822-2.564,14.62a46.7281,46.7281,0,0,1-6.09,9.5c-4.682,5.235-5.928,7.859-5.168,10.886,1.33,5.299,8.862,6.121,15.045,1.643,20.116-14.572,23.243-50.251,6.116-69.784-7.73-8.815-15.431-11.686-19.752-7.365"/><path class="a" d="M850.396,288.3068c-6.856,2.984-5.578,13.476,1.825,14.985,2.67.5439,23.772,1.853,28.6,1.7729,6.013-.0979,11.144-5.5579,9.649-10.2679-.822-2.589-6.099-5.517-12.2729-6.809-7.3611-1.54-23.9681-1.35-27.8011.319"/><path class="a" d="M845.355,323.4288c-1.992,1.992-2.4029,3.142-1.8769,5.25.9909,3.971,2.7119,5.524,17.0179,15.353,7.15,4.912,18.82,13.151,25.933,18.308s14.088,9.602,15.5,9.878a7.5776,7.5776,0,0,0,8.722-9.578c-.669-2.664-17.123-15.595-38.155-29.983-18.272-12.501-22.448-13.921-27.141-9.228"/><path class="a" d="M411.496,351.3008a37.0226,37.0226,0,0,1-4.862,1.062c-7.342,1.233-10.461,7.089-7.168,13.457,2.029,3.924,6.098,5.059,18.14,5.059,35.903,0,66.515,10.025,85.854,28.115,7.592,7.102,9.5,11.4329,7.589,17.224-2.59,7.849-11.455,11.673-26.985,11.641-20.555-.042-28.763-2.3591-55.522-15.668-20.047-9.971-21.798-10.393-25.996-6.271-2.792,2.741-2.522,8,.622,12.102,5.349,6.981,34.324,21.305,53.581,26.489,8.286,2.23,11.92,2.636,24.247,2.71,20.766.125,29.945-2.719,40.665-12.601,9.798-9.032,12.776-24.188,7.051-35.89-5.214-10.655-26.547-27.847-43.114-34.744-17.112-7.1241-39.895-11.875-60.602-12.638-6.875-.254-12.95-.274-13.5-.047"/><path class="b" d="M526.996,492.0088c-9.625,2.61-22.864,5.96-29.42,7.445l-11.919,2.699,3.419,2.853c4.877,4.0669,21.191,12.29,29.42,14.828a68.6787,68.6787,0,0,0,28.142,2.92c12.354-1.252,24.358-6.449,24.358-10.545,0-2.799-19.606-21.607-25.5-24.461-.55-.267-8.875,1.651-18.5,4.261"/></svg>