<svg xmlns="http://www.w3.org/2000/svg" viewBox="0 0 977.2153 154.989"><defs><style>.a{fill:#517181;}</style></defs><title>DeDxHERRiNG Tag</title><path class="a" d="M91.2,72.3182a100.9411,100.9411,0,0,1-2.834,24.9933,69.1528,69.1528,0,0,1-7.9106,19.2807,49.1539,49.1539,0,0,1-12.083,13.5312,49.7533,49.7533,0,0,1-15.35,7.9047,61.949,61.949,0,0,1-17.7505,2.7,92.67,92.67,0,0,1-19.3247-1.9025q-3.701-.7393-7.2417-1.683-3.5427-.94-7.2422-2.1363Q2.5655,82.4256,3.6675,28.9333a116.929,116.929,0,0,1,17.8291-7.497,130.7492,130.7492,0,0,1,18.2226-4.5246,45.9187,45.9187,0,0,1,20.7027.7837,36.0774,36.0774,0,0,1,16.2939,9.9485,49.3307,49.3307,0,0,1,10.666,18.5668A81.9512,81.9512,0,0,1,91.2,72.3182ZM58.9263,78.7536a43.55,43.55,0,0,0-.9053-9.7,23.962,23.962,0,0,0-3.2275-8.115,16.1288,16.1288,0,0,0-5.7071-5.4076,15.5914,15.5914,0,0,0-8.2651-1.7694q-1.5742,27.842-3.1484,55.2174a18.45,18.45,0,0,0,8.58-2.9247,24.3966,24.3966,0,0,0,6.6514-6.4909,31.5841,31.5841,0,0,0,4.33-9.0244,39.86,39.86,0,0,0,1.6924-10.4765Z" transform="translate(-1.4634 -2.4935)"/><path class="a" d="M183.77,69.7445a185.93,185.93,0,0,1-.9443,18.6976A267.669,267.669,0,0,0,156.0615,92.12q-13.3037,2.51-26.6059,4.8076a27.9379,27.9379,0,0,0,6.4155,12.1393,14.4007,14.4007,0,0,0,10.43,4.7763,17.3388,17.3388,0,0,0,6.8877-1.4354,46.93,46.93,0,0,0,7.4385-3.8558,74.2984,74.2984,0,0,0,7.0844-5.0846q3.3838-2.7436,5.8252-4.98-1.8891,24.3045-3.7783,48.5349a32.3965,32.3965,0,0,1-6.6519,5.2352,35.4979,35.4979,0,0,1-7.4384,3.3189,40.67,40.67,0,0,1-7.793,1.633,45.77,45.77,0,0,1-7.7139.1913,36.0527,36.0527,0,0,1-14.2475-3.7786,44.1989,44.1989,0,0,1-11.6895-8.6575,59.5059,59.5059,0,0,1-9.17-12.3341,81.43,81.43,0,0,1-6.5332-14.9243,105.09,105.09,0,0,1-3.936-16.6845,115.5017,115.5017,0,0,1-1.3379-17.5725,130.0534,130.0534,0,0,1,1.3379-18.5582,117.2058,117.2058,0,0,1,4.0537-18.0615,93.3729,93.3729,0,0,1,6.8486-16.4779,67.9632,67.9632,0,0,1,9.6426-13.772A46.36,46.36,0,0,1,127.606,6.7958a36.8968,36.8968,0,0,1,15.3886-4.2412,29.1335,29.1335,0,0,1,12.7915,1.9347,31.0579,31.0579,0,0,1,10.3116,6.8516,44.2382,44.2382,0,0,1,7.8716,10.8648,72.3872,72.3872,0,0,1,5.51,14.0071,108.7228,108.7228,0,0,1,3.2275,16.1825A140.2845,140.2845,0,0,1,183.77,69.7445Zm-31.4863-5.3686a40.649,40.649,0,0,0-.4722-6.0881,23.5577,23.5577,0,0,0-1.5351-5.6409,11.7018,11.7018,0,0,0-2.7944-4.1216,5.906,5.906,0,0,0-4.3291-1.5346,8.0719,8.0719,0,0,0-5.55,2.3991,21.0855,21.0855,0,0,0-4.1323,5.7513,40.3048,40.3048,0,0,0-2.834,7.4119,70.5558,70.5558,0,0,0-1.6528,7.311q11.65-1.57,23.3-3.1567Z" transform="translate(-1.4634 -2.4935)"/><path class="a" d="M192.1528,43.1343a64.8046,64.8046,0,0,1,10.666-21.385,45.9341,45.9341,0,0,1,16.294-13.3307,44.5724,44.5724,0,0,1,20.7027-4.3013,103.6787,103.6787,0,0,1,18.2226,2.0813,79.0571,79.0571,0,0,1,17.8291,5.9365q1.102,70.8219,2.2041,141.4484-3.6995.7026-7.2422,1.1191t-7.2417.5619a83.1333,83.1333,0,0,1-19.3247-1.4566,67.543,67.543,0,0,1-17.75-6.1077,63.5437,63.5437,0,0,1-15.35-11.0451,65.5559,65.5559,0,0,1-12.083-16.2376,87.4619,87.4619,0,0,1-7.9106-21.5714,119.6,119.6,0,0,1-2.834-27.1745A98.4827,98.4827,0,0,1,192.1528,43.1343ZM220.6084,80.063a53.0478,53.0478,0,0,0,1.6924,12.1152,42.0772,42.0772,0,0,0,4.33,10.6454,30.5145,30.5145,0,0,0,6.6513,8.0265,18.6277,18.6277,0,0,0,8.58,4.1589q-1.5742-33.2133-3.1484-66.4931a14.6566,14.6566,0,0,0-8.2651,2.674,19.5563,19.5563,0,0,0-5.7071,6.6432,31.8982,31.8982,0,0,0-3.2275,9.52,58.01,58.01,0,0,0-.9053,11.201Z" transform="translate(-1.4634 -2.4935)"/><path class="a" d="M338.7053,47.7461q-7.6171,15.54-15.2344,31.6111,6.8751,14.3581,13.75,28.308-8.164,3.473-16.3282,7.0333-3.9063-9.6634-7.8124-19.4787-4.1407,10.4844-8.2813,21.1186-8.4375-3.7357-16.875-7.6154,7.1874-15.2057,14.375-30.0984-6.5625-14.6412-13.125-29.5832,8.9454-2.6508,17.8906-5.1845,3.2032,9.3567,6.4063,18.6128,3.3984-9.1483,6.7968-18.1761Q329.4867,46.0276,338.7053,47.7461Z" transform="translate(-1.4634 -2.4935)"/><path class="a" d="M442.7021,140.845q-19.6789,3.1228-39.3578,6.2549-.1575-21.1683-.315-42.357-9.0522.3406-18.1045.6655-.551,20.6548-1.102,41.3739-17.6323,1.6545-35.2647,3.1073,1.4957-69.5552,2.9912-138.6218,18.7344,2.62,37.4688,5.376-1.181,33.5217-2.3618,67.2719,8.7375-.048,17.475-.0983.0791-35.3567.1578-70.6958,17.947,2.3909,35.894,4.8539Q441.4427,79.6795,442.7021,140.845Z" transform="translate(-1.4634 -2.4935)"/><path class="a" d="M524.7246,27.1531q-.4735,6.8454-.8661,13.5782t-1.0235,13.62q-16.6875-.0785-33.375-.06-.3939,4.9449-.7876,9.9054,11.7286.3645,23.4575.7278Q511.2642,76.571,510.3985,88.3q-11.8077.576-23.6153,1.19-.3936,5.79-.7871,11.5987,9.7608-.4,19.5215-.8,6.9271-.2829,13.8545-.564-.4731,8.1831-.9844,16.2854-.5125,8.1069-.9053,16.2689c-22.6177,2.9252-45.2353,5.9787-67.853,9.0154q1.26-61.37,2.5191-122.19C476.3405,21.754,500.5326,24.4962,524.7246,27.1531Z" transform="translate(-1.4634 -2.4935)"/><path class="a" d="M619.6553,66.4835a31.5752,31.5752,0,0,1-1.0625,8.49,22.5446,22.5446,0,0,1-3.3457,7.0286,28.9584,28.9584,0,0,1-5.9033,6.0376,59.658,59.658,0,0,1-8.7374,5.5211q9.3674,12.9844,18.7344,24.98-17.7114,4.03-35.4228,8.65-6.0611-13.1823-12.1221-27.067-4.88.3417-9.7607.6938-.7085,14.1393-1.417,28.3637-16.9239,1.7716-33.8477,3.6385.3927-16.7034.7481-33.2045t.8262-33.1q.1569-8.37.3154-16.5861.1567-8.2147.6289-16.5337a93.3084,93.3084,0,0,1,10.8632-2.0038,102.8193,102.8193,0,0,1,10.7442-.7464q5.3918-.0934,10.9424.2552,5.5487.3435,11.374.9465a80.7679,80.7679,0,0,1,17.3564,3.7571,59.9187,59.9187,0,0,1,14.8379,7.2109,37.4592,37.4592,0,0,1,10.3516,10.2963A23.6734,23.6734,0,0,1,619.6553,66.4835Zm-35.2647,1.0323a13.5783,13.5783,0,0,0-.9052-5.013,11.5478,11.5478,0,0,0-2.6768-4.0431A13.6225,13.6225,0,0,0,576.4,55.6249a18.8209,18.8209,0,0,0-6.1787-1.2908,27.66,27.66,0,0,0-3.07-.0017,23.6686,23.6686,0,0,0-2.9121.3464q-.63,12.5226-1.26,25.1127l1.89.0011a33.8373,33.8373,0,0,0,6.8878-.7272,23.3564,23.3564,0,0,0,6.2968-2.2149,13.8612,13.8612,0,0,0,4.5654-3.7992A8.8174,8.8174,0,0,0,584.3906,67.5158Z" transform="translate(-1.4634 -2.4935)"/><path class="a" d="M717.3418,68.4977a23.19,23.19,0,0,1-1.0625,7.2355,17.9611,17.9611,0,0,1-3.3457,5.9746,26.4164,26.4164,0,0,1-5.9033,5.0855,59.7743,59.7743,0,0,1-8.7373,4.5789q9.367,10.9585,18.7344,21.4509-17.7115,2.8706-35.4229,6.2932-6.0611-11.0588-12.1221-22.5318-4.88.2451-9.7607.5042-.7086,11.5945-1.417,23.2478-16.9238,1.2177-33.8477,2.6875.3928-13.6007.7481-27.0382t.8262-26.9563q.1566-6.8169.3154-13.5087.1564-6.6906.6289-13.4679,5.5092-1.1216,10.8633-1.6882,5.3525-.573,10.7441-.7019,5.3921-.1332,10.9424.0733,5.5488.2031,11.374.5921a96.2454,96.2454,0,0,1,17.3565,2.7446,63.199,63.199,0,0,1,14.8379,5.6658,33.4174,33.4174,0,0,1,10.3515,8.4552A17.6994,17.6994,0,0,1,717.3418,68.4977Zm-35.2647,1.165a9.271,9.271,0,0,0-3.582-7.4709,13.9781,13.9781,0,0,0-4.4081-2.2991,22.2642,22.2642,0,0,0-6.1788-1.0045q-1.5762-.0568-3.07.0258a28.9405,28.9405,0,0,0-2.9122.3085q-.63,10.286-1.26,20.6176l1.89.0007a40.8034,40.8034,0,0,0,6.8877-.6,26.6031,26.6031,0,0,0,6.2968-1.8321,13.5679,13.5679,0,0,0,4.5656-3.1525A6.5313,6.5313,0,0,0,682.0771,69.6627Z" transform="translate(-1.4634 -2.4935)"/><path class="a" d="M763.8632,45.6925q-2.7552,33.8063-5.5107,67.691-16.6087.7112-33.2177,1.8153-1.5744-34.374-3.1483-68.9531Q742.9247,46.23,763.8632,45.6925Z" transform="translate(-1.4634 -2.4935)"/><path class="a" d="M877.293,40.7225q-2.8341,38.5374-5.668,76.04-20.6235-.4069-41.2471-.2078c-7.3466-12.8562-14.6933-25.2632-22.04-37.4491q-1.7319,18.6408-3.4639,37.179-17.7108-.4842-35.4219-.4362,1.4171-35.1936,2.834-70.3783,19.6788-.5973,39.3576-1.8354c9.0783,11.8232,18.1568,23.8338,27.2351,36.3752q.63-17.7693,1.26-35.6089Q858.7157,42.9255,877.293,40.7225Z" transform="translate(-1.4634 -2.4935)"/><path class="a" d="M978.6787,121.0735a26.3377,26.3377,0,0,1-9.1307,6.3942,46.5246,46.5246,0,0,1-11.6507,3.2608,71.42,71.42,0,0,1-12.7518.7144,89.7723,89.7723,0,0,1-12.4365-1.2184,81.6,81.6,0,0,1-21.0176-6.5325,71.4543,71.4543,0,0,1-16.5692-10.5508A47.41,47.41,0,0,1,884.22,99.816,31.87,31.87,0,0,1,880.2841,84.44a38.832,38.832,0,0,1,1.968-12.1771,48.02,48.02,0,0,1,5.6279-11.535,61.7158,61.7158,0,0,1,8.9345-10.5748,76.183,76.183,0,0,1,11.9648-9.2749A90.875,90.875,0,0,1,923.42,33.4265a86.6191,86.6191,0,0,1,17.003-4.8822q3.3834-.6117,7.2421-1.0995,3.856-.4845,7.6747-.6308a52.2544,52.2544,0,0,1,7.4385.239,28.32,28.32,0,0,1,6.6123,1.457q-1.1019,14.72-2.2039,29.1927a38.5082,38.5082,0,0,0-9.0919-1.32,81.4105,81.4105,0,0,0-9.1708.2573,44.094,44.094,0,0,0-11.7676,2.61,34.9189,34.9189,0,0,0-9.5245,5.267,24.7909,24.7909,0,0,0-6.416,7.4867,19.3258,19.3258,0,0,0-2.3613,9.5181,19.0337,19.0337,0,0,0,1.1027,6.4066,16.751,16.751,0,0,0,3.3446,5.6231,18.9139,18.9139,0,0,0,5.5889,4.22,19.8977,19.8977,0,0,0,7.754,2.0227,28.9564,28.9564,0,0,0,6.1794-.2567,13.013,13.013,0,0,0,5.4708-2.0016q.1572-2.7267.3146-5.46-9.4458-.5511-18.8917-1.03.472-9.8482.9444-19.759,11.7279-.6765,23.4569-1.3674T977.7343,68.22Q978.2065,94.5492,978.6787,121.0735Z" transform="translate(-1.4634 -2.4935)"/><ellipse class="a" cx="741.4614" cy="21.5678" rx="19.055" ry="12.8027"/></svg>
